<?xml version="1.0" encoding="UTF-8" standalone="no"?>
<svg
   xmlns:dc="http://purl.org/dc/elements/1.1/"
   xmlns:cc="http://creativecommons.org/ns#"
   xmlns:rdf="http://www.w3.org/1999/02/22-rdf-syntax-ns#"
   xmlns:svg="http://www.w3.org/2000/svg"
   xmlns="http://www.w3.org/2000/svg"
   xmlns:sodipodi="http://sodipodi.sourceforge.net/DTD/sodipodi-0.dtd"
   xmlns:inkscape="http://www.inkscape.org/namespaces/inkscape"
   version="1.0"
   width="615.0592pt"
   height="426.63425pt"
   viewBox="0 0 615.0592 426.63425"
   preserveAspectRatio="xMidYMid meet"
   id="svg16"
   sodipodi:docname="Pelican_white.svg"
   inkscape:version="0.92.3 (2405546, 2018-03-11)">
  <defs
     id="defs20" />
  <sodipodi:namedview
     pagecolor="#ffffff"
     bordercolor="#666666"
     borderopacity="1"
     objecttolerance="10"
     gridtolerance="10"
     guidetolerance="10"
     inkscape:pageopacity="0"
     inkscape:pageshadow="2"
     inkscape:window-width="1920"
     inkscape:window-height="1017"
     id="namedview18"
     showgrid="false"
     inkscape:zoom="0.17151163"
     inkscape:cx="-476.37003"
     inkscape:cy="45.390211"
     inkscape:window-x="-8"
     inkscape:window-y="-8"
     inkscape:window-maximized="1"
     inkscape:current-layer="g14" />
  <metadata
     id="metadata2">
Created by potrace 1.15, written by Peter Selinger 2001-2017
<rdf:RDF>
  <cc:Work
     rdf:about="">
    <dc:format>image/svg+xml</dc:format>
    <dc:type
       rdf:resource="http://purl.org/dc/dcmitype/StillImage" />
    <dc:title />
  </cc:Work>
</rdf:RDF>
</metadata>
  <g
     transform="matrix(0.1,0,0,-0.1,-88.940777,953.92902)"
     id="g14"
     style="fill:#000000;stroke:none">
    <path
       d="m 2132,9524 c -10,-11 -22,-13 -45,-7 -57,13 -111,10 -115,-8 -2,-13 10,-19 55,-27 l 58,-11 -50,2 c -38,2 -50,-1 -50,-13 0,-10 -15,-17 -48,-21 -36,-4 -54,-12 -70,-31 -24,-29 -124,-66 -237,-89 -71,-14 -214,-82 -296,-142 -28,-20 -56,-37 -61,-37 -5,0 -20,-10 -33,-22 -14,-13 -28,-22 -33,-20 -5,1 -6,-1 -3,-6 5,-9 -54,-58 -66,-55 -3,1 -12,-5 -20,-15 -12,-16 -11,-16 7,-2 10,8 2,-6 -20,-32 -32,-40 -41,-45 -54,-35 -14,11 -14,10 -2,-6 12,-16 11,-21 -14,-47 -16,-17 -25,-30 -20,-30 5,0 -1,-7 -13,-16 -12,-8 -20,-19 -17,-24 7,-12 -13,-52 -31,-63 -19,-11 -17,-37 3,-52 15,-11 21,-7 45,26 15,22 30,39 33,39 9,0 5,-8 -11,-24 -15,-16 -25,-44 -28,-83 0,-12 -4,-25 -8,-29 -5,-4 -8,-16 -8,-26 0,-10 -4,-18 -10,-18 -5,0 -10,-13 -10,-30 0,-35 17,-40 30,-7 12,30 12,5 0,-28 -6,-16 -14,-23 -22,-19 -6,4 -9,3 -5,-2 3,-5 -5,-27 -18,-48 -12,-21 -25,-34 -27,-29 -3,4 -3,2 -1,-6 2,-7 -2,-21 -9,-29 -8,-10 -9,-13 -1,-9 6,4 13,1 16,-5 3,-10 8,-9 22,2 10,8 16,11 13,5 -2,-5 -10,-25 -17,-42 -7,-18 -16,-31 -20,-29 -4,3 -6,-7 -6,-22 2,-36 -7,-50 -16,-26 -5,13 -7,7 -7,-21 -1,-22 -1,-51 -2,-65 -2,-89 1,-134 10,-120 9,13 11,13 20,0 12,-19 13,-5 1,18 -10,20 4,66 18,57 5,-3 12,-1 16,5 3,5 11,10 16,10 6,0 7,-5 2,-12 -14,-23 -29,-74 -25,-86 6,-19 28,-14 46,11 15,19 16,20 11,2 -4,-11 -8,-27 -10,-35 -2,-8 -4,-15 -5,-15 -9,0 -14,-178 -6,-215 6,-27 5,-32 -4,-20 -10,12 -11,12 -5,-5 4,-11 11,-45 16,-75 22,-146 39,-241 54,-298 8,-35 12,-68 9,-74 -4,-6 -3,-8 3,-5 5,3 15,-16 22,-43 16,-60 35,-89 51,-74 8,8 7,28 -4,77 -9,36 -18,99 -20,139 l -5,73 15,-60 c 8,-33 22,-67 30,-75 19,-20 18,-7 -11,102 -25,96 -29,149 -10,142 14,-6 73,-191 89,-277 6,-37 26,-61 39,-48 5,5 4,17 -3,31 -6,12 -9,24 -7,27 6,5 63,-95 97,-167 48,-104 122,-232 167,-292 47,-60 86,-121 128,-198 38,-71 126,-210 137,-216 7,-4 -3,19 -22,52 -70,124 -120,214 -120,220 0,2 10,-4 22,-16 12,-11 24,-20 28,-20 3,0 30,-22 59,-49 30,-27 74,-60 99,-73 42,-21 185,-158 206,-196 5,-10 33,-47 62,-83 30,-36 54,-69 54,-73 0,-4 8,-19 19,-34 113,-164 218,-350 275,-486 9,-22 19,-37 22,-34 3,3 -7,34 -21,69 -35,84 -40,99 -21,69 8,-14 29,-61 47,-105 89,-227 113,-285 120,-285 9,0 -2,39 -26,95 -9,22 -32,82 -50,132 -19,51 -48,123 -65,160 -44,95 -160,289 -220,366 -27,36 -63,90 -79,119 -16,29 -34,52 -41,50 -14,-3 -49,37 -50,57 0,8 -15,29 -32,46 -18,17 -69,72 -113,123 -43,51 -85,92 -92,92 -7,0 -89,76 -181,168 -136,135 -170,174 -175,202 -4,20 -24,53 -47,79 -22,24 -49,58 -60,76 -28,45 -106,204 -115,235 -4,14 -18,41 -31,60 -13,19 -28,50 -35,68 -6,17 -15,32 -19,32 -4,0 -11,11 -14,24 -3,14 -16,28 -27,31 -17,6 -19,9 -8,16 10,6 11,9 2,9 -8,0 -13,13 -13,29 0,38 -18,49 -26,16 -13,-50 -21,-23 -28,90 -7,114 5,236 26,263 6,6 7,12 4,12 -4,0 -2,9 4,20 10,18 8,19 -14,10 -34,-12 -41,1 -27,53 18,70 17,80 -6,103 -25,25 -23,68 3,112 8,12 12,22 9,22 -3,0 -1,9 5,20 8,16 8,22 -4,26 -12,5 -11,15 5,72 32,107 33,112 17,112 -8,0 -19,-5 -25,-11 -18,-18 15,71 36,97 10,13 21,21 23,18 3,-2 4,8 2,23 -3,29 34,101 75,146 14,15 30,40 36,56 19,53 168,215 239,260 58,36 192,83 246,85 21,0 36,3 34,5 -2,3 24,15 58,27 35,12 108,38 163,58 55,20 109,36 120,36 12,0 45,9 75,19 30,11 59,16 65,13 5,-4 19,-5 31,-4 12,2 42,-8 68,-22 25,-13 61,-29 79,-35 37,-13 84,-47 76,-55 -3,-4 -17,3 -32,14 -27,21 -37,25 -37,12 0,-4 12,-15 28,-25 27,-18 27,-18 2,-11 -14,4 -37,15 -52,25 -30,22 -43,24 -32,8 4,-7 -7,-4 -25,7 -17,10 -31,22 -31,26 0,4 -6,8 -12,8 -18,0 41,-52 84,-74 21,-10 62,-19 92,-21 47,-1 61,-7 102,-41 32,-25 59,-39 82,-41 18,-1 40,-7 47,-13 8,-6 22,-10 32,-8 37,6 63,-26 69,-83 7,-76 13,-99 24,-99 9,0 7,48 -5,105 -5,25 -2,23 16,-12 11,-24 25,-41 29,-38 5,3 11,-14 15,-37 9,-62 15,-78 27,-78 6,0 8,10 4,25 -12,48 22,27 48,-30 25,-56 34,-63 52,-45 7,7 14,-3 23,-28 8,-20 18,-43 24,-51 17,-21 67,-143 67,-164 0,-27 -15,-13 -65,61 -110,163 -139,196 -179,206 -24,5 -40,16 -43,27 -6,21 -93,79 -160,106 -25,11 -45,26 -49,38 -12,47 -49,135 -56,135 -12,0 -10,-10 12,-66 19,-52 19,-52 -1,-47 -24,7 -26,9 -42,74 -15,56 -37,78 -37,36 0,-14 7,-38 15,-53 16,-31 19,-54 8,-54 -9,0 -50,60 -78,114 -21,39 -55,66 -42,32 8,-20 -9,-20 -43,-1 -39,22 -45,18 -16,-12 30,-30 29,-37 -5,-25 -49,18 -64,-6 -27,-45 42,-45 -43,-14 -94,35 -15,14 -31,23 -35,19 -9,-9 23,-43 66,-70 l 36,-22 -45,-8 c -25,-4 -57,-5 -72,-3 -28,5 -40,-8 -15,-17 6,-2 -21,-15 -60,-27 -40,-13 -73,-29 -73,-34 1,-6 22,-21 48,-34 81,-39 141,-98 173,-170 32,-71 32,-72 21,-72 -5,0 -23,20 -42,45 -19,25 -39,45 -46,45 -28,0 -22,-21 21,-67 25,-26 45,-52 45,-58 0,-5 7,-23 16,-40 9,-16 17,-40 19,-53 l 2,-23 -23,21 c -12,12 -28,35 -34,51 -7,16 -16,29 -21,29 -16,0 -9,-23 18,-59 l 28,-36 -42,33 c -23,18 -53,46 -67,62 -24,30 -46,39 -46,20 0,-12 165,-150 179,-150 15,0 14,-17 -1,-23 -20,-6 -101,48 -162,108 -59,58 -66,63 -66,42 0,-14 104,-117 118,-117 17,-1 54,-37 44,-44 -19,-11 -74,19 -131,70 -56,51 -81,69 -81,59 0,-23 140,-133 210,-167 l 35,-16 -30,-3 c -72,-5 -114,0 -141,17 -16,10 -31,21 -34,25 -3,3 -15,11 -28,18 -12,6 -47,32 -78,57 -31,25 -58,43 -60,41 -7,-6 58,-67 71,-67 6,0 30,-18 55,-41 43,-38 44,-40 16,-34 -80,17 -89,18 -83,8 7,-10 31,-17 112,-29 33,-4 162,-49 173,-59 2,-2 -4,-17 -13,-34 -13,-27 -21,-31 -56,-31 -43,0 -103,21 -130,46 -12,11 -19,12 -24,4 -4,-6 -5,-12 -4,-13 31,-19 102,-47 120,-48 13,0 33,-4 44,-9 l 20,-9 -20,-1 c -25,-2 -150,-3 -192,-1 -23,1 -43,12 -68,36 -19,20 -35,30 -35,23 0,-18 65,-85 100,-103 37,-19 109,-35 115,-25 3,4 -11,11 -30,14 -19,4 -47,13 -62,21 -26,14 -23,15 62,15 50,0 100,3 113,6 21,6 22,5 8,-26 -38,-92 -199,-128 -318,-70 -23,11 -43,18 -46,16 -17,-17 84,-103 176,-150 44,-23 40,-28 -15,-20 -51,7 -93,26 -130,58 -13,11 -25,17 -28,14 -13,-13 11,-37 71,-72 51,-31 67,-36 79,-26 8,6 20,8 26,4 8,-5 -8,-14 -41,-25 -49,-16 -58,-16 -99,-2 -25,8 -56,21 -69,29 -21,14 -42,12 -42,-4 0,-5 23,-21 50,-37 28,-16 50,-32 50,-36 0,-4 -11,-14 -24,-22 -22,-15 -27,-14 -71,9 -58,31 -72,22 -25,-17 44,-38 31,-56 -27,-35 -53,19 -65,11 -50,-37 7,-20 15,-37 19,-37 3,0 4,-44 1,-97 -6,-108 11,-201 46,-251 11,-15 30,-45 44,-67 13,-22 54,-72 91,-111 36,-40 66,-74 66,-76 0,-2 33,-38 73,-80 64,-67 172,-147 277,-204 19,-10 39,-24 45,-30 5,-6 48,-38 95,-69 47,-32 123,-95 169,-139 46,-45 80,-74 76,-66 -14,26 54,-42 111,-111 31,-38 74,-108 100,-165 25,-54 59,-128 76,-164 17,-36 36,-81 43,-101 7,-20 18,-45 23,-55 6,-11 27,-54 48,-97 20,-43 38,-76 41,-74 2,2 -10,33 -26,68 -54,118 -150,339 -146,339 2,0 20,-30 41,-67 21,-38 46,-84 57,-103 50,-88 166,-322 194,-390 28,-67 57,-157 83,-260 46,-180 78,-278 65,-200 -4,19 -13,78 -20,130 -16,107 -46,207 -107,349 -67,158 -244,493 -343,646 -18,28 -36,62 -39,76 -8,27 -56,121 -66,129 -7,5 -57,97 -111,200 -18,36 -62,109 -96,162 -34,54 -60,104 -57,111 3,9 -3,16 -14,19 -10,3 -29,26 -41,51 -12,25 -26,47 -30,49 -5,2 -18,21 -29,43 -22,42 -30,27 -12,-22 9,-26 9,-27 -5,-9 -8,11 -16,28 -16,38 -2,31 -4,36 -11,43 -4,4 -2,17 3,28 6,11 7,22 3,26 -5,3 -9,17 -9,31 0,18 6,25 20,25 11,0 25,4 32,8 15,9 51,-12 58,-34 11,-33 77,-90 138,-118 59,-27 175,-61 209,-61 9,0 18,-9 21,-20 6,-24 37,-27 37,-4 0,17 33,15 125,-6 122,-28 346,-72 460,-91 79,-13 183,-39 265,-66 170,-58 220,-80 306,-135 38,-25 114,-70 169,-100 55,-30 129,-72 165,-92 141,-79 374,-176 423,-176 19,0 356,-112 452,-150 42,-17 155,-52 253,-80 97,-27 203,-58 236,-69 93,-33 282,-69 396,-76 58,-3 206,-8 330,-10 252,-4 341,-18 397,-61 27,-21 42,-25 68,-21 27,4 33,2 28,-9 -3,-7 2,-16 10,-20 36,-13 107,106 107,179 0,56 -37,114 -118,188 -34,31 -62,60 -62,65 0,5 -35,33 -77,62 -43,28 -105,71 -138,95 -33,23 -87,58 -120,77 -33,19 -249,161 -480,315 -236,157 -495,322 -590,374 -93,52 -192,107 -220,122 -190,107 -355,188 -470,229 -73,26 -173,66 -221,88 -49,22 -134,59 -189,82 -55,23 -147,68 -205,100 -111,60 -166,88 -295,145 -124,55 -255,125 -290,154 -11,10 -38,29 -60,43 -22,14 -60,42 -85,62 -68,56 -270,255 -270,266 0,5 -15,42 -34,83 -19,41 -37,93 -41,116 -4,25 -14,45 -26,51 -10,6 -19,17 -19,25 0,20 -17,19 -29,-2 -8,-14 -11,-12 -24,18 -8,20 -18,45 -21,57 -4,12 -14,22 -21,22 -8,0 -28,28 -45,62 -18,35 -44,77 -59,93 -15,17 -37,48 -50,68 -21,35 -51,50 -51,26 0,-7 -8,-9 -22,-4 -13,4 -32,8 -43,9 -35,4 -115,44 -122,61 -4,11 -8,13 -13,6 -4,-8 -16,-3 -34,14 -15,14 -32,25 -37,25 -6,0 -7,4 -4,10 3,5 0,7 -7,5 -7,-3 -33,13 -58,35 -35,32 -52,40 -82,40 -21,0 -38,5 -38,10 0,6 -18,10 -39,10 -22,0 -43,5 -46,10 -9,15 -38,11 -53,-6 z m 263,-393 c 3,-5 21,-7 39,-4 19,3 42,0 52,-6 15,-8 0,-11 -66,-10 -99,0 -144,-5 -184,-20 -48,-19 -22,-23 60,-11 71,11 184,7 221,-7 9,-4 -1,-13 -26,-24 -23,-10 -41,-25 -41,-34 0,-17 16,-20 26,-4 11,19 76,41 87,30 5,-5 16,-7 23,-4 16,6 142,-26 150,-39 3,-4 14,-8 24,-8 10,0 28,-15 40,-35 15,-24 29,-35 45,-35 28,0 75,-20 75,-31 0,-5 19,-32 43,-61 50,-62 117,-163 117,-175 0,-10 -54,-53 -67,-53 -13,-1 -73,-106 -73,-128 0,-20 -1,-20 -45,-5 -25,8 -45,16 -45,18 0,1 7,18 15,36 l 14,34 1,-37 c 0,-24 5,-38 13,-38 19,0 36,20 30,36 -3,8 3,17 13,21 20,7 34,22 34,37 0,5 -8,2 -17,-5 -17,-13 -17,-13 0,7 9,11 17,27 17,35 0,9 7,24 15,35 8,10 15,23 15,27 0,15 -21,-4 -51,-45 -16,-23 -29,-38 -29,-35 0,16 27,64 43,75 9,7 15,18 12,23 -4,5 0,9 8,9 18,0 30,27 16,36 -6,3 -15,2 -21,-4 -15,-15 -46,-2 -52,23 -6,23 -46,43 -46,22 0,-6 -2,-8 -5,-5 -3,3 -1,17 4,32 10,24 8,28 -15,25 -3,0 -15,12 -26,26 -14,18 -23,23 -28,15 -5,-8 -14,-5 -29,11 -11,12 -21,28 -21,33 0,6 -18,30 -40,54 -36,38 -45,43 -78,41 -21,-2 -42,0 -47,2 -13,8 -54,5 -82,-5 -27,-9 -54,-61 -55,-107 -1,-27 7,-40 42,-71 40,-36 46,-38 102,-36 32,1 58,6 58,10 0,4 8,8 18,8 21,0 50,-31 44,-48 -2,-7 1,-12 7,-12 16,0 33,38 28,63 -3,22 -4,22 -15,-3 -9,-22 -11,-23 -13,-5 -7,80 -16,103 -66,156 -14,15 -21,29 -16,32 19,12 87,-65 88,-99 1,-13 17,-40 35,-59 28,-29 34,-43 35,-82 1,-27 -4,-55 -12,-64 -9,-11 -10,-24 -3,-50 14,-49 13,-51 -15,-33 -23,15 -25,15 -25,0 0,-8 14,-22 30,-31 35,-18 41,-39 8,-26 -37,13 -108,22 -108,13 0,-5 18,-14 40,-21 22,-6 40,-16 40,-21 0,-5 9,-12 21,-15 11,-4 18,-9 16,-12 -3,-2 -19,2 -35,11 -16,8 -49,19 -73,22 -24,4 -57,15 -74,25 -21,12 -70,21 -158,28 -70,6 -132,11 -137,11 -4,0 -4,16 2,37 5,20 8,52 5,72 -6,48 -56,186 -85,236 -22,37 -110,115 -131,115 -5,0 -14,6 -20,14 -9,11 -1,17 41,31 52,17 81,21 105,14 6,-2 11,0 11,6 0,5 9,12 19,16 27,11 121,10 128,0 z m 788,-540 c 22,-38 124,-133 270,-249 66,-53 134,-108 150,-122 30,-24 30,-24 25,-2 -5,18 4,14 50,-26 84,-71 102,-81 57,-34 l -40,43 110,-52 c 111,-52 133,-64 105,-58 -8,2 -16,-1 -18,-6 -2,-6 10,-13 27,-16 33,-7 105,-57 201,-141 35,-31 67,-55 69,-52 3,2 -4,11 -15,18 -18,14 -18,15 -1,21 14,6 15,10 6,21 -6,8 -16,14 -21,14 -6,0 -5,-7 2,-15 22,-26 0,-16 -46,22 -25,20 -50,45 -56,57 -11,20 -10,20 15,3 15,-9 48,-29 74,-43 118,-65 162,-95 213,-143 30,-29 64,-57 75,-62 11,-6 -2,10 -29,35 -27,25 -48,48 -45,50 2,3 40,-9 84,-26 140,-54 375,-148 423,-170 97,-44 439,-213 497,-246 33,-19 101,-58 150,-87 50,-28 97,-55 105,-58 14,-6 105,-66 472,-311 73,-49 151,-101 173,-116 22,-15 76,-51 120,-82 44,-30 116,-76 160,-103 92,-55 216,-143 228,-162 4,-7 34,-30 65,-52 32,-21 85,-68 118,-104 57,-60 61,-68 63,-116 1,-40 -4,-59 -25,-91 -15,-22 -29,-40 -31,-40 -2,0 -1,24 2,53 11,88 -20,141 -129,214 -66,45 -199,149 -225,177 -24,26 -59,37 -45,14 4,-7 3,-8 -5,-4 -6,4 -9,11 -6,16 6,9 -80,90 -97,90 -6,0 -1,-12 13,-26 18,-20 10,-16 -29,12 -83,60 -115,83 -147,104 -40,26 -137,106 -190,155 -29,27 -51,40 -70,40 -19,-1 -34,8 -48,27 -20,27 -37,36 -37,20 0,-5 17,-26 38,-47 43,-44 29,-38 -78,30 -36,23 -102,61 -147,85 -45,24 -80,47 -78,50 2,3 -5,7 -16,7 -33,3 -130,84 -166,139 -9,14 -18,22 -21,20 -3,-3 1,-12 8,-21 7,-9 10,-18 7,-21 -7,-8 -74,41 -110,80 -26,29 -28,29 -22,7 l 7,-23 -41,23 c -23,13 -51,38 -62,56 -11,18 -25,33 -31,33 -6,0 -3,-11 6,-25 12,-18 13,-25 4,-25 -7,0 6,-12 30,-26 59,-35 53,-41 -8,-8 -29,16 -46,30 -39,34 11,8 -61,50 -86,50 -7,0 -27,17 -44,37 -17,21 -31,33 -31,27 0,-5 5,-15 12,-22 9,-9 9,-12 -1,-12 -7,0 -29,17 -49,38 -19,20 -32,29 -29,20 4,-10 2,-18 -4,-18 -13,0 -71,57 -87,85 -6,11 -14,17 -18,12 -4,-4 1,-16 11,-27 10,-11 16,-23 13,-25 -5,-6 -37,25 -77,75 -11,14 -20,20 -21,14 0,-5 9,-20 21,-33 26,-27 19,-37 -13,-20 -12,7 -27,12 -31,11 -5,-1 -6,2 -3,7 7,10 -80,108 -89,100 -3,-4 8,-21 25,-39 37,-39 31,-52 -10,-22 -16,12 -36,22 -45,22 -8,0 -15,7 -15,16 0,20 -35,66 -44,57 -3,-4 2,-15 11,-26 10,-11 14,-18 8,-16 -40,18 -65,34 -65,43 0,6 -4,5 -9,-3 -7,-11 -15,-9 -42,12 -19,13 -45,28 -59,31 -41,11 -120,49 -120,57 0,5 -7,5 -17,2 -10,-4 -14,-2 -10,4 4,6 -3,11 -18,11 -14,0 -36,7 -50,16 -14,9 -27,17 -30,17 -2,0 -65,29 -140,65 -75,35 -140,64 -146,64 -6,0 -23,8 -37,19 -15,10 -42,22 -60,26 -18,4 -45,13 -60,21 -15,8 -30,14 -34,14 -4,0 -110,50 -235,111 -125,61 -272,131 -326,155 -145,66 -177,89 -177,130 0,19 -4,34 -10,34 -5,0 -10,-7 -10,-17 0,-9 -3,-13 -6,-10 -14,14 20,67 64,98 26,19 40,35 33,37 -24,8 11,22 54,22 34,0 43,-5 58,-29 z m -588,-72 c 22,-10 76,-28 120,-39 44,-12 114,-41 155,-64 41,-23 93,-50 115,-60 22,-10 80,-38 129,-63 48,-24 91,-42 94,-39 3,3 1,6 -4,6 -5,0 -20,10 -34,21 -14,11 -20,19 -15,16 6,-2 63,-30 128,-61 65,-31 121,-56 123,-56 2,0 41,-18 87,-41 99,-49 329,-152 412,-183 33,-13 128,-57 210,-98 83,-42 161,-79 174,-83 72,-22 391,-181 411,-205 21,-24 60,-44 92,-46 16,-1 61,-21 100,-45 40,-24 87,-51 103,-59 101,-54 200,-108 265,-145 41,-23 156,-81 255,-130 99,-48 199,-100 223,-116 24,-16 45,-29 48,-29 9,0 460,-295 562,-367 30,-21 62,-42 71,-48 9,-5 35,-24 56,-41 58,-46 206,-142 307,-199 49,-28 88,-55 88,-61 0,-5 13,-20 29,-32 51,-38 55,-138 5,-160 -33,-16 -44,-15 -44,3 0,8 -13,30 -30,48 -16,19 -30,39 -30,45 0,20 -90,91 -156,122 -141,67 -329,162 -354,180 -14,9 -52,31 -85,48 -33,16 -136,74 -230,127 -195,112 -335,188 -520,282 -71,36 -155,82 -185,101 -30,20 -69,41 -86,47 -38,14 -192,105 -344,204 -102,67 -231,141 -455,262 -38,21 -190,98 -337,171 -147,72 -266,133 -264,135 1,2 43,-11 91,-27 85,-29 133,-35 90,-13 -29,16 -374,129 -483,159 -51,14 -107,31 -125,39 -35,14 -251,83 -457,146 -144,44 -283,91 -290,100 -3,3 -21,11 -40,18 -64,22 -138,72 -133,91 3,12 -5,21 -26,29 -41,18 -54,57 -30,96 10,16 26,33 36,37 28,11 134,-3 178,-23 z m -314,-17 c -6,-12 -11,-43 -11,-71 0,-44 5,-56 35,-90 19,-21 35,-44 35,-50 0,-7 4,-10 9,-7 5,3 14,-1 21,-10 19,-22 112,-64 143,-64 75,0 290,-48 452,-100 258,-83 435,-138 470,-146 48,-11 281,-108 400,-167 61,-30 120,-57 131,-61 43,-13 324,-156 494,-251 96,-54 188,-104 204,-113 18,-9 24,-17 16,-22 -8,-5 -7,-9 5,-13 9,-4 13,-3 10,3 -10,16 -1,12 72,-29 37,-22 67,-44 66,-50 -2,-6 3,-8 11,-5 8,3 20,-3 27,-14 8,-10 34,-31 59,-47 25,-15 81,-51 125,-80 44,-29 150,-90 235,-135 85,-45 178,-97 205,-115 28,-18 68,-42 90,-54 22,-12 47,-25 55,-31 143,-90 299,-172 285,-151 -3,6 -1,11 5,11 13,0 221,-113 216,-117 -2,-2 -24,6 -50,17 -50,21 -77,26 -61,12 9,-8 121,-52 131,-52 3,0 2,5 -2,12 -4,7 -3,8 5,4 6,-4 9,-12 6,-17 -4,-5 -2,-9 4,-9 8,0 151,-62 349,-152 76,-34 39,-29 -54,8 -49,19 -102,41 -119,49 -16,7 -91,39 -165,70 -74,31 -168,72 -208,91 -41,19 -76,34 -78,34 -2,0 -22,11 -44,25 -21,13 -42,20 -45,15 -8,-13 -33,-2 -76,32 -40,31 -54,35 -46,15 3,-8 -12,-5 -42,9 -64,31 -108,41 -61,15 l 35,-20 -30,-2 c -27,-1 22,-12 100,-22 11,-1 25,-7 30,-13 6,-6 39,-23 75,-39 36,-15 92,-40 125,-56 179,-81 199,-89 218,-83 14,4 17,3 12,-6 -5,-9 -4,-11 4,-6 7,4 26,1 44,-7 18,-8 73,-32 122,-52 50,-20 95,-40 100,-44 24,-18 132,-50 151,-45 12,3 26,-1 33,-10 8,-9 19,-16 25,-16 21,0 96,-63 95,-80 0,-10 -2,-11 -6,-2 -2,6 -16,12 -29,12 -14,0 -35,6 -47,14 -19,13 -24,13 -35,0 -11,-11 -10,-14 3,-14 8,0 15,-4 15,-10 0,-5 -18,-3 -40,6 -22,9 -52,14 -67,10 -16,-3 -22,-3 -15,0 6,3 9,10 6,16 -4,7 11,8 46,3 38,-5 51,-4 46,4 -4,6 -14,11 -23,11 -8,0 -24,11 -35,25 -11,14 -27,24 -36,24 -15,-1 -15,-2 1,-6 9,-2 17,-9 17,-14 0,-11 -23,-12 -34,-2 -3,4 -12,8 -19,9 -61,10 -264,66 -282,78 -16,10 -25,12 -33,4 -8,-8 -24,-3 -57,17 -26,15 -49,24 -53,20 -4,-3 0,-10 8,-15 50,-32 -118,15 -282,79 -54,21 -98,34 -98,30 0,-10 67,-40 140,-63 30,-10 64,-22 75,-27 11,-5 74,-22 140,-38 66,-16 136,-36 155,-44 l 35,-16 -40,6 c -22,3 -66,14 -99,25 -60,20 -88,18 -42,-3 27,-13 37,-36 11,-26 -8,4 -51,15 -97,26 -85,20 -201,59 -183,60 23,2 -155,58 -186,58 -29,1 -24,-2 31,-22 36,-12 106,-37 155,-55 50,-17 124,-40 165,-50 46,-11 64,-19 46,-19 -53,-2 -23,-9 100,-25 67,-9 151,-25 187,-36 36,-11 94,-26 129,-34 57,-13 59,-14 23,-14 -22,-1 -62,4 -90,9 -27,6 -59,10 -70,10 -45,1 -186,23 -285,46 -58,13 -127,29 -155,35 -81,18 -228,56 -250,64 -14,5 -17,4 -10,-3 12,-13 116,-49 168,-58 20,-4 39,-11 42,-15 8,-13 -15,-23 -28,-12 -7,5 -52,22 -102,37 -104,31 -138,50 -115,65 12,8 11,10 -7,10 -12,0 -25,-4 -28,-10 -10,-16 -28,-12 -21,5 4,11 -11,20 -57,34 -34,11 -56,20 -48,20 8,1 11,4 8,7 -4,4 -13,2 -21,-5 -11,-9 -40,-3 -138,28 -67,22 -168,54 -223,70 -103,30 -233,76 -243,86 -10,10 16,5 51,-10 20,-8 42,-15 49,-14 7,0 -34,18 -92,39 -57,22 -106,37 -108,35 -3,-3 8,-9 24,-15 62,-22 71,-30 29,-25 -69,9 -89,12 -119,20 -21,6 -27,5 -22,-4 5,-8 -1,-8 -21,1 -15,7 -30,15 -33,18 -3,3 -22,14 -42,25 -21,11 -38,22 -38,25 0,3 -17,14 -37,24 -83,41 -99,50 -123,71 -14,12 -64,48 -112,79 -49,32 -88,59 -88,62 0,5 124,-71 150,-91 8,-7 44,-28 80,-47 36,-19 78,-43 93,-52 15,-10 34,-16 42,-12 10,3 13,2 10,-4 -6,-10 182,-106 191,-98 2,2 -37,23 -86,46 -50,23 -90,44 -90,47 0,5 17,-1 84,-30 21,-9 40,-14 42,-12 3,2 -21,15 -53,27 -77,31 -167,76 -184,92 -26,25 -71,50 -95,53 -13,1 -56,22 -96,46 -40,24 -82,45 -93,45 -11,1 -47,17 -80,36 -71,40 -343,160 -400,176 -22,7 -87,23 -145,36 -58,13 -129,29 -158,36 -28,7 -57,19 -62,29 -8,13 -11,13 -18,3 -14,-21 -56,-4 -71,29 -15,33 -31,38 -31,9 0,-32 -17,-23 -36,20 -10,22 -21,40 -25,40 -5,0 -19,-11 -33,-25 -23,-23 -23,-25 -6,-25 10,0 24,8 29,18 9,15 10,15 11,0 0,-9 3,-23 6,-32 5,-13 0,-13 -33,-4 -21,5 -43,14 -49,19 -6,5 -18,7 -25,4 -8,-3 -37,0 -64,5 -28,6 -58,11 -67,11 -9,0 -22,7 -28,14 -6,8 -17,12 -23,10 -7,-3 -20,6 -29,20 l -18,24 32,-10 c 17,-5 34,-7 36,-4 9,9 -10,24 -38,30 -26,6 -29,10 -24,31 4,14 2,24 -5,24 -6,0 -11,-7 -11,-15 0,-20 -6,-19 -44,4 -21,14 -37,35 -49,71 -17,46 -39,71 -53,57 -9,-9 16,-48 26,-42 6,4 7,-1 3,-11 -3,-10 -2,-15 3,-12 5,4 9,-4 10,-15 0,-12 4,-31 8,-42 7,-19 7,-19 -8,-1 -8,10 -17,24 -19,29 -2,6 -11,7 -22,3 -14,-5 -16,-9 -7,-18 14,-14 16,-28 3,-28 -5,0 -14,14 -21,30 -10,23 -17,29 -31,25 -24,-8 -25,11 -3,33 19,19 1,31 -20,13 -10,-8 -18,-5 -32,15 -36,51 -76,94 -87,94 -6,0 0,-11 13,-25 39,-42 12,-50 -51,-15 -30,16 -60,30 -66,30 -28,0 -10,-17 43,-43 67,-33 67,-52 -2,-52 -31,0 -61,-7 -77,-18 -22,-14 -27,-15 -27,-3 0,8 5,18 10,21 6,4 7,11 4,17 -5,7 -11,5 -19,-6 -12,-15 -13,-15 -20,1 -7,17 -8,17 -15,-2 -4,-11 -5,-33 -2,-49 5,-29 5,-29 -19,-13 -26,19 -54,23 -44,7 9,-15 -15,-12 -31,4 -8,8 -14,19 -14,25 0,6 -4,11 -10,11 -5,0 -10,-9 -10,-19 0,-23 35,-51 63,-51 25,0 129,-69 121,-81 -8,-14 -63,-10 -88,6 -16,11 -22,22 -19,35 7,27 -15,26 -43,-1 -22,-21 -23,-21 -17,-1 7,29 -11,57 -52,76 -37,18 -40,23 -26,45 7,11 11,10 20,-5 8,-16 10,-16 11,-3 0,9 16,34 37,55 20,21 45,58 55,81 11,26 26,43 36,44 12,0 11,3 -6,9 -12,5 -25,16 -28,24 -9,24 -32,8 -26,-20 3,-17 0,-24 -11,-24 -9,0 -22,-9 -30,-20 -8,-11 -17,-17 -20,-13 -4,3 -7,1 -7,-5 0,-7 -5,-12 -12,-12 -6,0 -3,9 8,21 10,12 19,35 19,53 1,19 6,30 13,28 7,-1 12,3 12,10 0,6 3,9 6,5 7,-7 54,58 54,73 0,6 -4,10 -10,10 -5,0 -10,-6 -10,-12 0,-10 -2,-10 -8,0 -10,15 -55,-32 -75,-76 -13,-30 -27,-43 -39,-36 -4,3 2,22 13,44 11,22 18,48 15,58 -5,15 -1,18 16,18 17,-1 24,6 28,29 4,21 12,31 27,33 11,2 29,12 39,23 20,22 42,26 24,4 -7,-9 -11,-18 -8,-21 6,-5 58,60 58,72 0,4 -10,-1 -21,-12 -22,-19 -22,-19 -8,4 8,12 17,22 21,22 14,0 9,27 -7,40 -13,11 -11,15 10,32 14,11 25,27 25,37 0,10 12,28 26,40 l 26,23 -20,20 -20,21 21,43 c 16,34 18,47 9,56 -9,9 -13,7 -18,-8 -17,-53 -27,-74 -36,-74 -6,0 -4,10 4,23 8,12 18,35 22,50 3,15 17,37 30,48 14,12 26,37 30,60 6,38 26,82 34,74 2,-2 -1,-12 -7,-23 z m -515,-671 c -6,-9 31,-25 49,-21 6,1 5,-4 -2,-11 -10,-10 -15,-9 -27,1 -23,19 -46,5 -46,-28 0,-16 -5,-43 -11,-61 -9,-25 -8,-36 5,-56 10,-16 14,-34 10,-50 -7,-30 16,-54 53,-55 24,0 45,-31 88,-133 33,-80 94,-142 127,-131 12,3 18,2 15,-3 -4,-6 0,-18 7,-29 13,-17 15,-15 25,24 7,23 14,42 17,42 3,0 24,-13 47,-28 58,-39 92,-52 132,-52 29,0 36,-4 41,-25 5,-21 10,-24 33,-19 20,4 23,3 11,-5 -35,-25 -103,-7 -193,51 -37,24 -51,28 -60,19 -9,-9 -2,-21 31,-50 23,-21 42,-43 42,-49 0,-24 129,-100 144,-84 3,3 6,-2 6,-10 0,-11 19,-19 63,-28 71,-15 77,-16 95,-18 6,-1 12,-7 12,-13 0,-11 -28,-9 -62,6 -40,16 -13,-20 91,-124 60,-60 117,-123 126,-140 9,-18 20,-29 27,-25 7,4 8,3 4,-5 -4,-6 0,-18 8,-27 29,-28 17,-44 -12,-16 -160,154 -241,215 -543,412 -53,34 -108,81 -149,128 -36,41 -88,100 -116,131 -87,98 -134,175 -151,249 -26,117 -30,168 -15,207 12,31 18,35 49,35 19,0 32,-4 29,-9 z"
       id="path8"
       style="fill:#ffffff"
       inkscape:connector-curvature="0" />
    <path
       d="m 2316,8988 c -6,-14 -12,-15 -27,-7 -15,8 -19,6 -19,-7 0,-10 3,-14 7,-10 4,4 16,-19 28,-51 12,-36 28,-61 41,-67 11,-5 26,-23 32,-39 9,-23 16,-28 32,-24 13,3 23,0 27,-9 8,-21 67,-54 98,-54 20,0 26,-4 22,-15 -4,-8 -2,-17 4,-20 5,-4 12,0 15,9 4,10 17,13 46,11 41,-4 96,10 85,22 -4,3 -35,7 -69,8 -126,5 -208,68 -208,160 0,25 5,55 11,67 13,25 5,35 -16,18 -12,-10 -15,-10 -15,4 0,33 -20,15 -26,-24 -4,-22 -11,-40 -17,-40 -5,0 -7,13 -3,30 3,17 1,30 -4,30 -5,0 -10,-19 -12,-42 l -3,-43 -11,55 c -8,39 -13,50 -18,38 z"
       id="path10"
       style="fill:#ffffff"
       inkscape:connector-curvature="0" />
    <path
       d="m 5520,6951 c 0,-4 44,-30 98,-56 53,-27 104,-54 112,-61 8,-6 49,-26 90,-44 122,-53 495,-240 498,-251 2,-5 8,-9 14,-9 6,0 38,-17 72,-38 63,-40 170,-100 241,-136 50,-24 77,-45 138,-103 26,-25 50,-43 54,-40 14,14 -110,116 -203,166 -54,30 -161,92 -237,138 -77,46 -153,90 -170,97 -37,15 -417,199 -462,223 -16,9 -69,35 -117,59 -47,24 -89,48 -93,54 -8,12 -35,14 -35,1 z"
       id="path12"
       style="fill:#ffffff"
       inkscape:connector-curvature="0" />
  </g>
</svg>
